Coordinates
version=1
nRows=8
nColumns=46
inDegrees=yes

Units are S.I. units (second, meters, Newtons, ...)
Angles are in degrees.

endheader
time	pelvis_tilt	pelvis_list	pelvis_rotation	pelvis_tx	pelvis_ty	pelvis_tz	bb_angle	bb_tx	bb_ty	bb_tz	hip_flexion_r	hip_adduction_r	hip_rotation_r	knee_angle_r	knee_angle_r_beta	ankle_angle_r	subtalar_angle_r	mtp_angle_r	crank_angle_r	hip_flexion_l	hip_adduction_l	hip_rotation_l	knee_angle_l	knee_angle_l_beta	ankle_angle_l	subtalar_angle_l	mtp_angle_l	crank_angle_l	lumbar_extension	lumbar_bending	lumbar_rotation	arm_flex_r	arm_add_r	arm_rot_r	elbow_flex_r	pro_sup_r	wrist_flex_r	wrist_dev_r	arm_flex_l	arm_add_l	arm_rot_l	elbow_flex_l	pro_sup_l	wrist_flex_l	wrist_dev_l
      5.00000000	    -23.02087980	     -4.21022216	     -1.52404519	      0.20795426	      1.03906104	     -0.22211463	      0.00000000	      0.50000000	      0.00000000	      0.25000000	     73.13423248	      0.08056981	      2.31655422	    106.99093900	      1.86734416	     -9.08223512	    -13.28802183	      0.00000000	      0.00000000	     51.74390184	     -6.32603010	      4.02483396	     40.05313214	      0.69905903	     12.21410890	    -11.81042834	      0.00000000	      0.00000000	    -56.69096901	     -0.51902749	      1.04457459	     68.72126358	    -23.58873814	     30.01933337	     85.68899766	     52.01814240	      0.00000000	      0.00000000	     63.70635116	    -22.64185425	     22.11465254	     92.52733721	     50.92298697	      0.00000000	      0.00000000
      5.00500000	    -23.25983201	     -4.78331021	     -2.03401542	      0.20765300	      1.03932536	     -0.22267034	      0.00000000	      0.50000000	      0.00000000	      0.25000000	     74.89687659	      0.57524425	      1.97021762	    108.42903952	      1.89244374	     -8.86460514	    -13.21809880	      0.00000000	      0.00000000	     50.39865267	     -7.23042235	      3.84917444	     37.89410813	      0.66137695	     10.99961512	    -10.76695947	      0.00000000	      0.00000000	    -56.47358003	     -0.06006264	      1.95381616	     69.08346366	    -23.53235000	     30.12809630	     85.72258899	     52.03484912	      0.00000000	      0.00000000	     63.53838452	    -22.74052158	     21.93967356	     92.46676747	     50.90448492	      0.00000000	      0.00000000
      5.01000000	    -23.42165610	     -5.19925505	     -2.65679128	      0.20760993	      1.03988186	     -0.22293043	      0.00000000	      0.50000000	      0.00000000	      0.25000000	     76.60036347	      1.08436040	      1.73437751	    109.73634668	      1.91526056	     -8.73130481	    -13.02467275	      0.00000000	      0.00000000	     48.90877248	     -8.13695205	      3.32062800	     35.74552723	      0.62387714	      9.64753914	     -9.73097833	      0.00000000	      0.00000000	    -56.32890402	      0.11510543	      2.68609476	     69.47230411	    -23.58709135	     30.33260221	     85.77227134	     52.06590247	      0.00000000	      0.00000000	     63.15053682	    -22.72630263	     21.72131791	     92.33989931	     50.87579705	      0.00000000	      0.00000000
      5.01500000	    -23.36512491	     -5.34447779	     -3.38332030	      0.20794411	      1.04077099	     -0.22321820	      0.00000000	      0.50000000	      0.00000000	      0.25000000	     78.08404843	      1.57071788	      1.82996682	    111.00294452	      1.93736686	     -8.45033432	    -12.58827388	      0.00000000	      0.00000000	     47.14234748	     -8.90798533	      2.30772457	     33.73885912	      0.58885418	      8.40106921	     -8.74656704	      0.00000000	      0.00000000	    -56.41831819	      0.07938391	      3.39405394	     70.25467755	    -24.35311650	     31.77770285	     85.93994355	     52.29422848	      0.00000000	      0.00000000	     62.40562728	    -21.87709615	     20.27894162	     92.11931968	     50.78203043	      0.00000000	      0.00000000
      5.02000000	    -23.62992066	     -5.71386508	     -3.93071930	      0.20770757	      1.04077974	     -0.22367705	      0.00000000	      0.50000000	      0.00000000	      0.25000000	     79.94900039	      1.94970630	      1.56842511	    112.16498562	      1.95764830	     -8.23412025	    -12.54888258	      0.00000000	      0.00000000	     46.03497051	     -9.70886043	      1.66346463	     32.18052340	      0.56165609	      7.16318981	     -7.63840870	      0.00000000	      0.00000000	    -56.19254503	      0.39791311	      4.11745159	     70.63302642	    -24.25878272	     31.80597284	     86.05585003	     52.31516323	      0.00000000	      0.00000000	     62.18934074	    -21.99904047	     20.18659143	     92.05475604	     50.77327696	      0.00000000	      0.00000000
      5.02500000	    -23.67218426	     -5.84538842	     -4.69636029	      0.20784024	      1.04121455	     -0.22353634	      0.00000000	      0.50000000	      0.00000000	      0.25000000	     81.58236566	      2.55972596	      1.63205168	    113.26358236	      1.97682243	     -7.78034554	    -12.27263403	      0.00000000	      0.00000000	     44.65727766	    -10.56061800	      0.28819912	     30.77255415	      0.53708239	      6.10076513	     -6.23950168	      0.00000000	      0.00000000	    -56.15660276	      0.24515280	      4.70307416	     70.85655611	    -24.37087566	     32.20298214	     86.27267913	     52.40406193	      0.00000000	      0.00000000	     61.65599225	    -21.96723804	     19.83252207	     91.97274523	     50.75561926	      0.00000000	      0.00000000
      5.03000000	    -23.84913350	     -6.19436942	     -5.24989362	      0.20802037	      1.04143975	     -0.22363687	      0.00000000	      0.50000000	      0.00000000	      0.25000000	     83.26116812	      2.97314516	      1.34828580	    114.20739923	      1.99329515	     -7.40887321	    -11.86159470	      0.00000000	      0.00000000	     43.64823406	    -11.43393391	     -0.82576767	     29.71820866	      0.51868059	      5.13835468	     -4.75721225	      0.00000000	      0.00000000	    -56.07050102	      0.43036486	      5.38768847	     71.18318796	    -24.57088305	     32.64787382	     86.54999186	     52.51409723	      0.00000000	      0.00000000	     61.18565832	    -21.83018139	     19.22572088	     92.08196882	     50.75657277	      0.00000000	      0.00000000
      5.03500000	    -24.08322975	     -6.33993390	     -5.76910402	      0.20778746	      1.04141369	     -0.22393100	      0.00000000	      0.50000000	      0.00000000	      0.25000000	     85.07016478	      3.27189428	      1.25209822	    115.03039805	      2.00765919	     -7.22820734	    -11.61443864	      0.00000000	      0.00000000	     42.80793971	    -12.06831867	     -2.01891764	     28.85741040	      0.50365683	      4.08036349	     -3.63265114	      0.00000000	      0.00000000	    -55.89735732	      0.54685028	      5.88120614	     71.47943319	    -24.65265549	     33.00710938	     86.75930666	     52.59626901	      0.00000000	      0.00000000	     60.76103580	    -21.83063888	     18.86949403	     92.07975606	     50.75431394	      0.00000000	      0.00000000
